<?xml version="1.0" encoding="UTF-8"?>
<svg width="128px" height="128px" viewBox="0 0 128 128" version="1.1" xmlns="http://www.w3.org/2000/svg"
     stroke="currentColor"
     fill="none" stroke-linecap="round" stroke-linejoin="round" stroke-width="9">
    <path d="M26.9050143,71.9157578 C22.5330143,69.6289007 20,66.9128292 20,64.0000435 C20,55.8532578 39.8123714,49.2493292 64.2520857,49.2493292 C88.6922286,49.2493292 108.504371,55.8532578 108.504371,64.0000435 C108.504371,67.5126864 104.8208,70.7386864 98.6700857,73.2723292"/>
    <path d="M88.2586571,34.4990435 C88.2358,29.469115 86.9665143,25.9096864 84.3394429,24.5710435 C77.0805857,20.8725364 62.2015857,35.5272578 51.1063,57.303115 C40.0108714,79.079115 36.9005143,99.7306864 44.1592286,103.429258 C46.7525143,104.749972 50.3185143,103.729258 54.3370857,100.877115"/>
    <path d="M52.4551571,25.9024007 C49.2082286,24.0052578 46.3398714,23.4599721 44.1592286,24.5710435 C36.9005143,28.2695435 40.0108,48.920615 51.1062286,70.6966864 C62.2018,92.4728292 77.0803714,107.127115 84.3391571,103.429258 C90.7908,100.141401 89.0508,83.4599721 80.7921571,64.4999007"/>
</svg>
