<?xml version="1.0" encoding="UTF-8"?>
<svg stroke="currentColor"
     fill="transparent"
     stroke-linecap="round"
     stroke-linejoin="round"
     stroke-width="9"
     viewBox="0 0 128 128"
     version="1.1"
     xmlns="http://www.w3.org/2000/svg">
    <path d="M33.324474,54.8844257 C22.2427263,57.5195812 14,67.4838417 14,79.3709856 C14,93.2716199 25.2679956,104.539615 39.1686298,104.539615 C41.5520991,104.539615 43.8600624,104.20739 46.0472163,103.588241 M94.6780429,54.8844257 C105.759791,57.5195812 114,67.4838417 114,79.3709856 C114,93.2716199 102.732004,104.539615 88.8313702,104.539615 C86.4479009,104.539615 84.1399376,104.20739 81.9553005,103.588241 M94.5396154,54.2023558 C94.5396154,37.5231048 81.0165106,24 64.3372596,24 C47.6580087,24 34.1349039,37.5231048 34.1349039,54.2023558 M46.8828149,74.0377529 L64.3372596,56.5279372 L82.2875264,74.3372596 M64.3372596,99.5058895 L64.3372596,65.4325984"/>
</svg>
