<?xml version="1.0" encoding="UTF-8"?>
<svg stroke="currentColor"
     fill="transparent"
     stroke-linecap="round"
     stroke-linejoin="round"
     stroke-width="9"
     viewBox="0 0 128 128"
     version="1.1"
     xmlns="http://www.w3.org/2000/svg">
    <path d="M91.0928636,23.2977281 C94.0597096,22.7691057 98.13238,22.6126766 101.261054,25.7412581 C104.389728,28.8698396 104.2279,32.9369956 103.704656,35.9091481 C103.186807,38.8327536 101.962308,42.4953516 100.586771,46.6272369 L100.457308,47.0156125 L88.784118,82.023361 L88.7301753,82.1851842 C87.3060892,86.4573162 86.1732935,89.8663912 85.1753544,92.4124093 C84.2421465,94.8127865 83.136322,97.2940753 81.4640998,99.0309774 C78.4128664,102.205697 74.1996504,104 69.7963036,104 C65.3929568,104 61.1797408,102.205697 58.1285074,99.0309774 C56.4562852,97.2940753 55.3504607,94.8127865 54.4172528,92.4124093 C53.4193137,89.8663912 52.286518,86.4573162 50.8570376,82.1797901 L50.803095,82.0287551 C50.1557831,80.0814828 50.010138,79.6931071 49.8537043,79.3964313 C49.3470648,78.4375879 48.5631673,77.6537135 47.6042956,77.1470891 C47.307611,76.9852659 46.9192239,76.8450191 44.971894,76.1923323 L44.8208546,76.1383912 C40.5432021,74.7143472 37.1340263,73.581585 34.5825388,72.5836753 C32.1874849,71.650495 29.7061228,70.5447032 27.9691694,68.8725303 C24.7943563,65.8213871 23,61.6082956 23,57.2050789 C23,52.8018622 24.7943563,48.5887707 27.9691694,45.5376274 C29.7061228,43.8654546 32.1874849,42.7596628 34.5825388,41.8264825 C37.968385,40.563721 41.3820078,39.3767218 44.8208546,38.2663724 L44.971894,38.2124314 L79.986071,26.5449799 L80.3744581,26.4155214 C84.5064655,25.0400243 88.1691717,23.8155622 91.0928636,23.2977281"/>
</svg>
